<?xml version="1.0" encoding="UTF-8" standalone="no" ?>
<!DOCTYPE svg PUBLIC "-//W3C//DTD SVG 1.1//EN" "http://www.w3.org/Graphics/SVG/1.1/DTD/svg11.dtd">
<svg xmlns="http://www.w3.org/2000/svg" xmlns:xlink="http://www.w3.org/1999/xlink" version="1.1" width="1080" height="1080" viewBox="0 0 1080 1080" xml:space="preserve">
<desc>Created with Fabric.js 5.2.4</desc>
<defs>
</defs>
<rect x="0" y="0" width="100%" height="100%" fill="transparent"></rect>
<g transform="matrix(1 0 0 1 540 540)" id="1526a0d6-cbc0-4434-b0a0-05a07035dd5a"  >
<rect style="stroke: none; stroke-width: 1; stroke-dasharray: none; stroke-linecap: butt; stroke-dashoffset: 0; stroke-linejoin: miter; stroke-miterlimit: 4; fill: rgb(255,255,255); fill-rule: nonzero; opacity: 1; visibility: hidden;" vector-effect="non-scaling-stroke"  x="-540" y="-540" rx="0" ry="0" width="1080" height="1080" />
</g>
<g transform="matrix(1 0 0 1 540 540)" id="08811ea5-837c-42ae-b8f5-2379783d4f63"  >
</g>
<g transform="matrix(11.19 0 0 11.19 539.88 569.33)" id="e0ceea85-dcfa-491d-b05a-f2bfd92faaba"  >
<circle style="stroke: rgb(0,0,0); stroke-width: 0; stroke-dasharray: none; stroke-linecap: butt; stroke-dashoffset: 0; stroke-linejoin: miter; stroke-miterlimit: 4; fill: rgb(255,229,0); fill-rule: nonzero; opacity: 1;" vector-effect="non-scaling-stroke"  cx="0" cy="0" r="35" />
</g>
<g transform="matrix(0 0 0 0 0 0)"  >
<g style=""   >
</g>
</g>
<g transform="matrix(1.87 0 0 -2.24 1018.75 557.16)"  >
<polygon style="stroke: rgb(0,0,0); stroke-width: 0; stroke-dasharray: none; stroke-linecap: butt; stroke-dashoffset: 0; stroke-linejoin: miter; stroke-miterlimit: 4; fill: rgb(255,229,0); fill-rule: nonzero; opacity: 1;" vector-effect="non-scaling-stroke"  points="-30.68,-37.41 30.68,0 -30.68,37.41 " />
</g>
<g transform="matrix(1.65 -0.87 -1.05 -1.98 963.65 350.39)"  >
<polygon style="stroke: rgb(0,0,0); stroke-width: 0; stroke-dasharray: none; stroke-linecap: butt; stroke-dashoffset: 0; stroke-linejoin: miter; stroke-miterlimit: 4; fill: rgb(255,229,0); fill-rule: nonzero; opacity: 1;" vector-effect="non-scaling-stroke"  points="-30.68,-37.41 30.68,0 -30.68,37.41 " />
</g>
<g transform="matrix(1.06 -1.54 -1.84 -1.28 823.49 195.5)"  >
<polygon style="stroke: rgb(0,0,0); stroke-width: 0; stroke-dasharray: none; stroke-linecap: butt; stroke-dashoffset: 0; stroke-linejoin: miter; stroke-miterlimit: 4; fill: rgb(255,229,0); fill-rule: nonzero; opacity: 1;" vector-effect="non-scaling-stroke"  points="-30.68,-37.41 30.68,0 -30.68,37.41 " />
</g>
<g transform="matrix(0.38 1.83 2.19 -0.46 668.96 1027.45)"  >
<polygon style="stroke: rgb(0,0,0); stroke-width: 0; stroke-dasharray: none; stroke-linecap: butt; stroke-dashoffset: 0; stroke-linejoin: miter; stroke-miterlimit: 4; fill: rgb(255,229,0); fill-rule: nonzero; opacity: 1;" vector-effect="non-scaling-stroke"  points="-30.68,-37.41 30.68,0 -30.68,37.41 " />
</g>
<g transform="matrix(1.19 1.44 1.72 -1.43 859.95 930.98)"  >
<polygon style="stroke: rgb(0,0,0); stroke-width: 0; stroke-dasharray: none; stroke-linecap: butt; stroke-dashoffset: 0; stroke-linejoin: miter; stroke-miterlimit: 4; fill: rgb(255,229,0); fill-rule: nonzero; opacity: 1;" vector-effect="non-scaling-stroke"  points="-30.68,-37.41 30.68,0 -30.68,37.41 " />
</g>
<g transform="matrix(1.72 0.73 0.87 -2.06 982.7 761.97)"  >
<polygon style="stroke: rgb(0,0,0); stroke-width: 0; stroke-dasharray: none; stroke-linecap: butt; stroke-dashoffset: 0; stroke-linejoin: miter; stroke-miterlimit: 4; fill: rgb(255,229,0); fill-rule: nonzero; opacity: 1;" vector-effect="non-scaling-stroke"  points="-30.68,-37.41 30.68,0 -30.68,37.41 " />
</g>
<g transform="matrix(1.19 1.44 1.72 -1.43 345.85 726.94)"  >
<polygon style="stroke: rgb(0,0,0); stroke-width: 0; stroke-dasharray: none; stroke-linecap: butt; stroke-dashoffset: 0; stroke-linejoin: miter; stroke-miterlimit: 4; fill: rgb(255,229,0); fill-rule: nonzero; opacity: 1;" vector-effect="non-scaling-stroke"  points="-30.68,-37.41 30.68,0 -30.68,37.41 " />
</g>
<g transform="matrix(1.72 0.73 0.87 -2.06 468.61 557.93)"  >
<polygon style="stroke: rgb(0,0,0); stroke-width: 0; stroke-dasharray: none; stroke-linecap: butt; stroke-dashoffset: 0; stroke-linejoin: miter; stroke-miterlimit: 4; fill: rgb(255,229,0); fill-rule: nonzero; opacity: 1;" vector-effect="non-scaling-stroke"  points="-30.68,-37.41 30.68,0 -30.68,37.41 " />
</g>
<g transform="matrix(-1.87 -0.03 -0.03 2.24 73.1 607.87)"  >
<polygon style="stroke: rgb(0,0,0); stroke-width: 0; stroke-dasharray: none; stroke-linecap: butt; stroke-dashoffset: 0; stroke-linejoin: miter; stroke-miterlimit: 4; fill: rgb(255,229,0); fill-rule: nonzero; opacity: 1;" vector-effect="non-scaling-stroke"  points="-30.68,-37.41 30.68,0 -30.68,37.41 " />
</g>
<g transform="matrix(-1.67 0.85 1.02 2 116.99 790.71)"  >
<polygon style="stroke: rgb(0,0,0); stroke-width: 0; stroke-dasharray: none; stroke-linecap: butt; stroke-dashoffset: 0; stroke-linejoin: miter; stroke-miterlimit: 4; fill: rgb(255,229,0); fill-rule: nonzero; opacity: 1;" vector-effect="non-scaling-stroke"  points="-30.68,-37.41 30.68,0 -30.68,37.41 " />
</g>
<g transform="matrix(-1.09 1.52 1.82 1.3 254.89 947.61)"  >
<polygon style="stroke: rgb(0,0,0); stroke-width: 0; stroke-dasharray: none; stroke-linecap: butt; stroke-dashoffset: 0; stroke-linejoin: miter; stroke-miterlimit: 4; fill: rgb(255,229,0); fill-rule: nonzero; opacity: 1;" vector-effect="non-scaling-stroke"  points="-30.68,-37.41 30.68,0 -30.68,37.41 " />
</g>
<g transform="matrix(-0.41 1.82 2.19 0.49 446.76 1027.81)"  >
<polygon style="stroke: rgb(0,0,0); stroke-width: 0; stroke-dasharray: none; stroke-linecap: butt; stroke-dashoffset: 0; stroke-linejoin: miter; stroke-miterlimit: 4; fill: rgb(255,229,0); fill-rule: nonzero; opacity: 1;" vector-effect="non-scaling-stroke"  points="-30.68,-37.41 30.68,0 -30.68,37.41 " />
</g>
<g transform="matrix(-1.21 -1.42 -1.71 1.45 222.81 217.69)"  >
<polygon style="stroke: rgb(0,0,0); stroke-width: 0; stroke-dasharray: none; stroke-linecap: butt; stroke-dashoffset: 0; stroke-linejoin: miter; stroke-miterlimit: 4; fill: rgb(255,229,0); fill-rule: nonzero; opacity: 1;" vector-effect="non-scaling-stroke"  points="-30.68,-37.41 30.68,0 -30.68,37.41 " />
</g>
<g transform="matrix(-1.73 -0.7 -0.84 2.07 102.13 388.19)"  >
<polygon style="stroke: rgb(0,0,0); stroke-width: 0; stroke-dasharray: none; stroke-linecap: butt; stroke-dashoffset: 0; stroke-linejoin: miter; stroke-miterlimit: 4; fill: rgb(255,229,0); fill-rule: nonzero; opacity: 1;" vector-effect="non-scaling-stroke"  points="-30.68,-37.41 30.68,0 -30.68,37.41 " />
</g>
<g transform="matrix(-0.41 -1.83 -2.19 0.49 412.62 118.9)"  >
<polygon style="stroke: rgb(0,0,0); stroke-width: 0; stroke-dasharray: none; stroke-linecap: butt; stroke-dashoffset: 0; stroke-linejoin: miter; stroke-miterlimit: 4; fill: rgb(255,229,0); fill-rule: nonzero; opacity: 1;" vector-effect="non-scaling-stroke"  points="-30.68,-37.41 30.68,0 -30.68,37.41 " />
</g>
<g transform="matrix(0.33 -1.84 -2.2 -0.4 620.37 109.52)"  >
<polygon style="stroke: rgb(0,0,0); stroke-width: 0; stroke-dasharray: none; stroke-linecap: butt; stroke-dashoffset: 0; stroke-linejoin: miter; stroke-miterlimit: 4; fill: rgb(255,229,0); fill-rule: nonzero; opacity: 1;" vector-effect="non-scaling-stroke"  points="-30.68,-37.41 30.68,0 -30.68,37.41 " />
</g>
</svg>